<mxfile host="app.diagrams.net" modified="2024-03-15T17:18:43.495Z" agent="Mozilla/5.0 (Windows NT 10.0; Win64; x64) AppleWebKit/537.36 (KHTML, like Gecko) Chrome/121.0.0.0 Safari/537.36" etag="BEXBrbypH2oJFBD5ahzq" version="21.7.5" type="device">
  <diagram id="R2lEEEUBdFMjLlhIrx00" name="Page-1">
    <mxGraphModel dx="1975" dy="644" grid="1" gridSize="10" guides="0" tooltips="1" connect="1" arrows="1" fold="1" page="1" pageScale="1" pageWidth="850" pageHeight="1100" background="#ffffff" math="0" shadow="0" extFonts="Permanent Marker^https://fonts.googleapis.com/css?family=Permanent+Marker">
      <root>
        <mxCell id="0" />
        <mxCell id="1" parent="0" />
        <mxCell id="fzF3U09KroDr1Pvdv3as-64" value="&lt;span style=&quot;border-bottom: 1px dotted&quot;&gt;amenity_id&lt;/span&gt;" style="ellipse;whiteSpace=wrap;html=1;align=center;" parent="1" vertex="1">
          <mxGeometry x="-120" y="540" width="80" height="30" as="geometry" />
        </mxCell>
        <mxCell id="Y2xqFB4JjpYxMKC6ryJV-35" value="phone_number" style="ellipse;whiteSpace=wrap;html=1;align=center;fontStyle=4;" vertex="1" parent="1">
          <mxGeometry x="-720" y="304" width="80" height="30" as="geometry" />
        </mxCell>
        <mxCell id="Y2xqFB4JjpYxMKC6ryJV-36" value="name" style="ellipse;whiteSpace=wrap;html=1;align=center;" vertex="1" parent="1">
          <mxGeometry x="-720" y="345" width="80" height="30" as="geometry" />
        </mxCell>
        <mxCell id="Y2xqFB4JjpYxMKC6ryJV-37" value="first name" style="ellipse;whiteSpace=wrap;html=1;align=center;" vertex="1" parent="1">
          <mxGeometry x="-815" y="330" width="80" height="30" as="geometry" />
        </mxCell>
        <mxCell id="Y2xqFB4JjpYxMKC6ryJV-38" value="last name" style="ellipse;whiteSpace=wrap;html=1;align=center;" vertex="1" parent="1">
          <mxGeometry x="-815" y="362" width="80" height="30" as="geometry" />
        </mxCell>
        <mxCell id="Y2xqFB4JjpYxMKC6ryJV-45" value="email address" style="ellipse;whiteSpace=wrap;html=1;align=center;fontStyle=4;" vertex="1" parent="1">
          <mxGeometry x="-720" y="265" width="80" height="30" as="geometry" />
        </mxCell>
        <mxCell id="Y2xqFB4JjpYxMKC6ryJV-57" value="Guest" style="whiteSpace=wrap;html=1;align=center;" vertex="1" parent="1">
          <mxGeometry x="-600" y="320" width="80" height="40" as="geometry" />
        </mxCell>
        <mxCell id="Y2xqFB4JjpYxMKC6ryJV-65" value="Room" style="whiteSpace=wrap;html=1;align=center;" vertex="1" parent="1">
          <mxGeometry x="-119" y="320" width="80" height="40" as="geometry" />
        </mxCell>
        <mxCell id="Y2xqFB4JjpYxMKC6ryJV-70" value="room_number" style="ellipse;whiteSpace=wrap;html=1;align=center;fontStyle=4;" vertex="1" parent="1">
          <mxGeometry x="1" y="244" width="80" height="30" as="geometry" />
        </mxCell>
        <mxCell id="Y2xqFB4JjpYxMKC6ryJV-74" value="" style="endArrow=none;html=1;rounded=0;exitX=1;exitY=0.5;exitDx=0;exitDy=0;" edge="1" parent="1">
          <mxGeometry relative="1" as="geometry">
            <mxPoint x="-39" y="340" as="sourcePoint" />
            <mxPoint x="-19" y="340" as="targetPoint" />
          </mxGeometry>
        </mxCell>
        <mxCell id="Y2xqFB4JjpYxMKC6ryJV-75" value="type" style="ellipse;whiteSpace=wrap;html=1;align=center;" vertex="1" parent="1">
          <mxGeometry x="1" y="324" width="80" height="30" as="geometry" />
        </mxCell>
        <mxCell id="Y2xqFB4JjpYxMKC6ryJV-76" value="" style="endArrow=none;html=1;rounded=0;exitX=0;exitY=0.5;exitDx=0;exitDy=0;" edge="1" parent="1" source="Y2xqFB4JjpYxMKC6ryJV-57">
          <mxGeometry width="50" height="50" relative="1" as="geometry">
            <mxPoint x="-450" y="460" as="sourcePoint" />
            <mxPoint x="-620" y="340" as="targetPoint" />
          </mxGeometry>
        </mxCell>
        <mxCell id="Y2xqFB4JjpYxMKC6ryJV-77" value="" style="endArrow=none;html=1;rounded=0;" edge="1" parent="1">
          <mxGeometry width="50" height="50" relative="1" as="geometry">
            <mxPoint x="-620" y="400" as="sourcePoint" />
            <mxPoint x="-620" y="280" as="targetPoint" />
          </mxGeometry>
        </mxCell>
        <mxCell id="Y2xqFB4JjpYxMKC6ryJV-78" value="" style="endArrow=none;html=1;rounded=0;" edge="1" parent="1">
          <mxGeometry width="50" height="50" relative="1" as="geometry">
            <mxPoint x="-640" y="280" as="sourcePoint" />
            <mxPoint x="-620" y="280" as="targetPoint" />
          </mxGeometry>
        </mxCell>
        <mxCell id="Y2xqFB4JjpYxMKC6ryJV-79" value="" style="endArrow=none;html=1;rounded=0;" edge="1" parent="1">
          <mxGeometry width="50" height="50" relative="1" as="geometry">
            <mxPoint x="-640" y="320" as="sourcePoint" />
            <mxPoint x="-620" y="320" as="targetPoint" />
          </mxGeometry>
        </mxCell>
        <mxCell id="Y2xqFB4JjpYxMKC6ryJV-82" value="" style="endArrow=none;html=1;rounded=0;" edge="1" parent="1">
          <mxGeometry width="50" height="50" relative="1" as="geometry">
            <mxPoint x="-640" y="360" as="sourcePoint" />
            <mxPoint x="-620" y="360" as="targetPoint" />
          </mxGeometry>
        </mxCell>
        <mxCell id="Y2xqFB4JjpYxMKC6ryJV-83" value="" style="endArrow=none;html=1;rounded=0;exitX=1;exitY=0.5;exitDx=0;exitDy=0;entryX=0;entryY=0.5;entryDx=0;entryDy=0;" edge="1" parent="1" source="Y2xqFB4JjpYxMKC6ryJV-38" target="Y2xqFB4JjpYxMKC6ryJV-36">
          <mxGeometry width="50" height="50" relative="1" as="geometry">
            <mxPoint x="-745" y="440" as="sourcePoint" />
            <mxPoint x="-695" y="390" as="targetPoint" />
          </mxGeometry>
        </mxCell>
        <mxCell id="Y2xqFB4JjpYxMKC6ryJV-84" value="" style="endArrow=none;html=1;rounded=0;exitX=1;exitY=0.5;exitDx=0;exitDy=0;entryX=0.005;entryY=0.572;entryDx=0;entryDy=0;entryPerimeter=0;" edge="1" parent="1" source="Y2xqFB4JjpYxMKC6ryJV-37" target="Y2xqFB4JjpYxMKC6ryJV-36">
          <mxGeometry width="50" height="50" relative="1" as="geometry">
            <mxPoint x="-735" y="450" as="sourcePoint" />
            <mxPoint x="-685" y="400" as="targetPoint" />
          </mxGeometry>
        </mxCell>
        <mxCell id="Y2xqFB4JjpYxMKC6ryJV-85" value="address" style="ellipse;whiteSpace=wrap;html=1;align=center;" vertex="1" parent="1">
          <mxGeometry x="-720" y="385" width="80" height="30" as="geometry" />
        </mxCell>
        <mxCell id="Y2xqFB4JjpYxMKC6ryJV-88" value="" style="endArrow=none;html=1;rounded=0;" edge="1" parent="1">
          <mxGeometry width="50" height="50" relative="1" as="geometry">
            <mxPoint x="-640" y="400" as="sourcePoint" />
            <mxPoint x="-620" y="400" as="targetPoint" />
          </mxGeometry>
        </mxCell>
        <mxCell id="Y2xqFB4JjpYxMKC6ryJV-90" value="Booking" style="whiteSpace=wrap;html=1;align=center;" vertex="1" parent="1">
          <mxGeometry x="-360" y="320" width="80" height="40" as="geometry" />
        </mxCell>
        <mxCell id="Y2xqFB4JjpYxMKC6ryJV-96" value="" style="shape=link;html=1;rounded=0;entryX=0;entryY=0.5;entryDx=0;entryDy=0;" edge="1" parent="1" target="Y2xqFB4JjpYxMKC6ryJV-90">
          <mxGeometry relative="1" as="geometry">
            <mxPoint x="-410" y="340" as="sourcePoint" />
            <mxPoint x="-370" y="340" as="targetPoint" />
          </mxGeometry>
        </mxCell>
        <mxCell id="Y2xqFB4JjpYxMKC6ryJV-101" value="" style="endArrow=none;html=1;rounded=0;" edge="1" parent="1">
          <mxGeometry width="50" height="50" relative="1" as="geometry">
            <mxPoint x="-19" y="420" as="sourcePoint" />
            <mxPoint x="-19" y="260" as="targetPoint" />
          </mxGeometry>
        </mxCell>
        <mxCell id="Y2xqFB4JjpYxMKC6ryJV-102" value="" style="endArrow=none;html=1;rounded=0;exitX=1;exitY=0.5;exitDx=0;exitDy=0;" edge="1" parent="1">
          <mxGeometry relative="1" as="geometry">
            <mxPoint x="-19" y="260" as="sourcePoint" />
            <mxPoint x="1" y="260" as="targetPoint" />
          </mxGeometry>
        </mxCell>
        <mxCell id="Y2xqFB4JjpYxMKC6ryJV-103" value="" style="endArrow=none;html=1;rounded=0;exitX=1;exitY=0.5;exitDx=0;exitDy=0;" edge="1" parent="1">
          <mxGeometry relative="1" as="geometry">
            <mxPoint x="-19" y="340" as="sourcePoint" />
            <mxPoint x="1" y="340" as="targetPoint" />
          </mxGeometry>
        </mxCell>
        <mxCell id="Y2xqFB4JjpYxMKC6ryJV-105" value="" style="endArrow=none;html=1;rounded=0;exitX=1;exitY=0.5;exitDx=0;exitDy=0;" edge="1" parent="1">
          <mxGeometry relative="1" as="geometry">
            <mxPoint x="-19" y="300" as="sourcePoint" />
            <mxPoint x="1" y="300" as="targetPoint" />
          </mxGeometry>
        </mxCell>
        <mxCell id="Y2xqFB4JjpYxMKC6ryJV-106" value="floor" style="ellipse;whiteSpace=wrap;html=1;align=center;" vertex="1" parent="1">
          <mxGeometry x="1" y="284" width="80" height="30" as="geometry" />
        </mxCell>
        <mxCell id="Y2xqFB4JjpYxMKC6ryJV-107" value="size" style="ellipse;whiteSpace=wrap;html=1;align=center;" vertex="1" parent="1">
          <mxGeometry x="1" y="364" width="80" height="30" as="geometry" />
        </mxCell>
        <mxCell id="Y2xqFB4JjpYxMKC6ryJV-109" value="" style="endArrow=none;html=1;rounded=0;exitX=1;exitY=0.5;exitDx=0;exitDy=0;" edge="1" parent="1">
          <mxGeometry relative="1" as="geometry">
            <mxPoint x="-19" y="380" as="sourcePoint" />
            <mxPoint x="1" y="380" as="targetPoint" />
            <Array as="points">
              <mxPoint x="-9" y="380" />
            </Array>
          </mxGeometry>
        </mxCell>
        <mxCell id="Y2xqFB4JjpYxMKC6ryJV-111" value="booking_id" style="ellipse;whiteSpace=wrap;html=1;align=center;fontStyle=4;" vertex="1" parent="1">
          <mxGeometry x="-420" y="186" width="80" height="30" as="geometry" />
        </mxCell>
        <mxCell id="Y2xqFB4JjpYxMKC6ryJV-258" value="Makes" style="shape=rhombus;perimeter=rhombusPerimeter;whiteSpace=wrap;html=1;align=center;" vertex="1" parent="1">
          <mxGeometry x="-480" y="310" width="80" height="60" as="geometry" />
        </mxCell>
        <mxCell id="Y2xqFB4JjpYxMKC6ryJV-259" value="" style="endArrow=none;html=1;rounded=0;exitX=0;exitY=0.5;exitDx=0;exitDy=0;" edge="1" parent="1" source="Y2xqFB4JjpYxMKC6ryJV-258">
          <mxGeometry width="50" height="50" relative="1" as="geometry">
            <mxPoint x="-500" y="340" as="sourcePoint" />
            <mxPoint x="-520" y="340" as="targetPoint" />
          </mxGeometry>
        </mxCell>
        <mxCell id="Y2xqFB4JjpYxMKC6ryJV-263" value="" style="shape=link;html=1;rounded=0;entryX=0.051;entryY=0.495;entryDx=0;entryDy=0;entryPerimeter=0;" edge="1" parent="1" target="Y2xqFB4JjpYxMKC6ryJV-260">
          <mxGeometry relative="1" as="geometry">
            <mxPoint x="-280" y="340" as="sourcePoint" />
            <mxPoint x="-230" y="340" as="targetPoint" />
          </mxGeometry>
        </mxCell>
        <mxCell id="Y2xqFB4JjpYxMKC6ryJV-264" value="" style="endArrow=none;html=1;rounded=0;exitX=1;exitY=0.5;exitDx=0;exitDy=0;entryX=0;entryY=0.5;entryDx=0;entryDy=0;" edge="1" parent="1" source="Y2xqFB4JjpYxMKC6ryJV-260">
          <mxGeometry relative="1" as="geometry">
            <mxPoint x="-160" y="340" as="sourcePoint" />
            <mxPoint x="-120" y="340" as="targetPoint" />
          </mxGeometry>
        </mxCell>
        <mxCell id="Y2xqFB4JjpYxMKC6ryJV-260" value="Assigns" style="shape=rhombus;perimeter=rhombusPerimeter;whiteSpace=wrap;html=1;align=center;" vertex="1" parent="1">
          <mxGeometry x="-240" y="310" width="80" height="60" as="geometry" />
        </mxCell>
        <mxCell id="Y2xqFB4JjpYxMKC6ryJV-265" value="" style="endArrow=none;html=1;rounded=0;" edge="1" parent="1">
          <mxGeometry width="50" height="50" relative="1" as="geometry">
            <mxPoint x="-320" y="320" as="sourcePoint" />
            <mxPoint x="-320" y="200" as="targetPoint" />
          </mxGeometry>
        </mxCell>
        <mxCell id="Y2xqFB4JjpYxMKC6ryJV-266" value="" style="endArrow=none;html=1;rounded=0;" edge="1" parent="1">
          <mxGeometry width="50" height="50" relative="1" as="geometry">
            <mxPoint x="-340" y="200" as="sourcePoint" />
            <mxPoint x="-320" y="200" as="targetPoint" />
          </mxGeometry>
        </mxCell>
        <mxCell id="Y2xqFB4JjpYxMKC6ryJV-267" value="check_in_date" style="ellipse;whiteSpace=wrap;html=1;align=center;" vertex="1" parent="1">
          <mxGeometry x="-300" y="205" width="90" height="30" as="geometry" />
        </mxCell>
        <mxCell id="Y2xqFB4JjpYxMKC6ryJV-268" value="check_out_date" style="ellipse;whiteSpace=wrap;html=1;align=center;" vertex="1" parent="1">
          <mxGeometry x="-300" y="244" width="90" height="30" as="geometry" />
        </mxCell>
        <mxCell id="Y2xqFB4JjpYxMKC6ryJV-269" value="booking_date" style="ellipse;whiteSpace=wrap;html=1;align=center;" vertex="1" parent="1">
          <mxGeometry x="-420" y="225" width="80" height="30" as="geometry" />
        </mxCell>
        <mxCell id="Y2xqFB4JjpYxMKC6ryJV-270" value="total_price" style="ellipse;whiteSpace=wrap;html=1;align=center;" vertex="1" parent="1">
          <mxGeometry x="-420" y="265" width="80" height="30" as="geometry" />
        </mxCell>
        <mxCell id="Y2xqFB4JjpYxMKC6ryJV-272" value="" style="endArrow=none;html=1;rounded=0;" edge="1" parent="1">
          <mxGeometry width="50" height="50" relative="1" as="geometry">
            <mxPoint x="-340" y="240" as="sourcePoint" />
            <mxPoint x="-320" y="240" as="targetPoint" />
          </mxGeometry>
        </mxCell>
        <mxCell id="Y2xqFB4JjpYxMKC6ryJV-273" value="" style="endArrow=none;html=1;rounded=0;" edge="1" parent="1">
          <mxGeometry width="50" height="50" relative="1" as="geometry">
            <mxPoint x="-340" y="280" as="sourcePoint" />
            <mxPoint x="-320" y="280" as="targetPoint" />
          </mxGeometry>
        </mxCell>
        <mxCell id="Y2xqFB4JjpYxMKC6ryJV-274" value="" style="endArrow=none;html=1;rounded=0;" edge="1" parent="1">
          <mxGeometry width="50" height="50" relative="1" as="geometry">
            <mxPoint x="-320" y="220" as="sourcePoint" />
            <mxPoint x="-300" y="220" as="targetPoint" />
          </mxGeometry>
        </mxCell>
        <mxCell id="Y2xqFB4JjpYxMKC6ryJV-275" value="" style="endArrow=none;html=1;rounded=0;" edge="1" parent="1">
          <mxGeometry width="50" height="50" relative="1" as="geometry">
            <mxPoint x="-320" y="260" as="sourcePoint" />
            <mxPoint x="-300" y="260" as="targetPoint" />
          </mxGeometry>
        </mxCell>
        <mxCell id="Y2xqFB4JjpYxMKC6ryJV-276" value="" style="endArrow=none;html=1;rounded=0;exitX=1;exitY=0.5;exitDx=0;exitDy=0;" edge="1" parent="1">
          <mxGeometry relative="1" as="geometry">
            <mxPoint x="-20" y="420" as="sourcePoint" />
            <mxPoint y="420" as="targetPoint" />
            <Array as="points">
              <mxPoint x="-10" y="420" />
            </Array>
          </mxGeometry>
        </mxCell>
        <mxCell id="Y2xqFB4JjpYxMKC6ryJV-277" value="decor" style="ellipse;whiteSpace=wrap;html=1;align=center;" vertex="1" parent="1">
          <mxGeometry y="405" width="80" height="30" as="geometry" />
        </mxCell>
        <mxCell id="Y2xqFB4JjpYxMKC6ryJV-278" value="" style="endArrow=none;html=1;rounded=0;" edge="1" parent="1">
          <mxGeometry width="50" height="50" relative="1" as="geometry">
            <mxPoint x="-320" y="300" as="sourcePoint" />
            <mxPoint x="-300" y="300" as="targetPoint" />
          </mxGeometry>
        </mxCell>
        <mxCell id="Y2xqFB4JjpYxMKC6ryJV-279" value="special_requests" style="ellipse;whiteSpace=wrap;html=1;align=center;" vertex="1" parent="1">
          <mxGeometry x="-300" y="284" width="90" height="30" as="geometry" />
        </mxCell>
        <mxCell id="Y2xqFB4JjpYxMKC6ryJV-281" value="" style="endArrow=none;html=1;rounded=0;exitX=0.487;exitY=1.014;exitDx=0;exitDy=0;entryX=0.5;entryY=0;entryDx=0;entryDy=0;exitPerimeter=0;" edge="1" parent="1" source="Y2xqFB4JjpYxMKC6ryJV-65">
          <mxGeometry relative="1" as="geometry">
            <mxPoint x="-100" y="380" as="sourcePoint" />
            <mxPoint x="-80" y="390" as="targetPoint" />
          </mxGeometry>
        </mxCell>
        <mxCell id="Y2xqFB4JjpYxMKC6ryJV-284" value="" style="shape=link;html=1;rounded=0;" edge="1" parent="1">
          <mxGeometry relative="1" as="geometry">
            <mxPoint x="-80" y="450" as="sourcePoint" />
            <mxPoint x="-80" y="500" as="targetPoint" />
          </mxGeometry>
        </mxCell>
        <mxCell id="Y2xqFB4JjpYxMKC6ryJV-286" value="Amenity" style="shape=ext;margin=3;double=1;whiteSpace=wrap;html=1;align=center;" vertex="1" parent="1">
          <mxGeometry x="-120" y="480" width="80" height="40" as="geometry" />
        </mxCell>
        <mxCell id="Y2xqFB4JjpYxMKC6ryJV-287" value="" style="endArrow=none;html=1;rounded=0;" edge="1" parent="1">
          <mxGeometry width="50" height="50" relative="1" as="geometry">
            <mxPoint x="-80" y="540" as="sourcePoint" />
            <mxPoint x="-80" y="520" as="targetPoint" />
          </mxGeometry>
        </mxCell>
        <mxCell id="Y2xqFB4JjpYxMKC6ryJV-291" value="&lt;b&gt;1&lt;/b&gt;" style="text;html=1;align=center;verticalAlign=middle;resizable=0;points=[];autosize=1;strokeColor=none;fillColor=none;" vertex="1" parent="1">
          <mxGeometry x="-501" y="317" width="30" height="30" as="geometry" />
        </mxCell>
        <mxCell id="Y2xqFB4JjpYxMKC6ryJV-292" value="&lt;b&gt;N&lt;/b&gt;" style="text;html=1;align=center;verticalAlign=middle;resizable=0;points=[];autosize=1;strokeColor=none;fillColor=none;" vertex="1" parent="1">
          <mxGeometry x="-408" y="316" width="30" height="30" as="geometry" />
        </mxCell>
        <mxCell id="Y2xqFB4JjpYxMKC6ryJV-293" value="&lt;b&gt;1&lt;/b&gt;" style="text;html=1;align=center;verticalAlign=middle;resizable=0;points=[];autosize=1;strokeColor=none;fillColor=none;" vertex="1" parent="1">
          <mxGeometry x="-170" y="317" width="30" height="30" as="geometry" />
        </mxCell>
        <mxCell id="Y2xqFB4JjpYxMKC6ryJV-294" value="&lt;b&gt;N&lt;/b&gt;" style="text;html=1;align=center;verticalAlign=middle;resizable=0;points=[];autosize=1;strokeColor=none;fillColor=none;" vertex="1" parent="1">
          <mxGeometry x="-262" y="314" width="30" height="30" as="geometry" />
        </mxCell>
        <mxCell id="Y2xqFB4JjpYxMKC6ryJV-296" value="&lt;b&gt;N&lt;/b&gt;" style="text;html=1;align=center;verticalAlign=middle;resizable=0;points=[];autosize=1;strokeColor=none;fillColor=none;" vertex="1" parent="1">
          <mxGeometry x="-84" y="444" width="30" height="30" as="geometry" />
        </mxCell>
        <mxCell id="Y2xqFB4JjpYxMKC6ryJV-298" value="Has" style="shape=rhombus;double=1;perimeter=rhombusPerimeter;whiteSpace=wrap;html=1;align=center;" vertex="1" parent="1">
          <mxGeometry x="-120" y="390" width="80" height="60" as="geometry" />
        </mxCell>
        <mxCell id="Y2xqFB4JjpYxMKC6ryJV-297" value="&lt;b&gt;1&lt;/b&gt;" style="text;html=1;align=center;verticalAlign=middle;resizable=0;points=[];autosize=1;strokeColor=none;fillColor=none;" vertex="1" parent="1">
          <mxGeometry x="-85" y="368" width="30" height="30" as="geometry" />
        </mxCell>
      </root>
    </mxGraphModel>
  </diagram>
</mxfile>
